<?xml version="1.0" encoding="utf-8"?>
<!-- Generator: Adobe Illustrator 25.0.0, SVG Export Plug-In . SVG Version: 6.00 Build 0)  -->
<svg version="1.1" id="Layer_1" xmlns="http://www.w3.org/2000/svg" xmlns:xlink="http://www.w3.org/1999/xlink" x="0px" y="0px"
	 viewBox="0 0 400 137.5" style="enable-background:new 0 0 400 137.5;" xml:space="preserve">
<style type="text/css">
	.st0{fill:transparent;}
	.st1{fill:#FFFFFF;}
	.st2{fill:#EC661A;}
</style>
<rect class="st0" width="400" height="137.5"/>
<path id="Path_34436_00000003106976740295931250000008506402046567239833_" class="st1" d="M51.54,106.27
	c15.02,0,28.17-5.47,39.46-16.41V52.61L51.78,71.23h19.55v7.45c-4.19,3.84-11.76,6.87-19.32,6.87c-7.1,0-12.92-2.33-17.23-6.98
	c-4.27-4.52-6.61-10.54-6.52-16.76c-0.15-6.26,2.24-12.3,6.63-16.76c4.42-4.54,10.13-6.75,17.11-6.75c7.51,0,14.74,2.82,20.25,7.92
	l13.85-16.18c-7.92-7.45-20.37-12.57-33.87-12.57c-13.15,0-24.21,4.19-33.06,12.57C10.45,38.4,6.03,49.11,6.03,62.03
	c0,12.8,4.19,23.4,12.69,31.78C27.22,102.08,38.16,106.27,51.54,106.27z M113.35,35.03c6.37,0.12,11.64-4.94,11.76-11.31
	c0-0.19,0-0.37,0-0.56c0.09-6.34-4.98-11.55-11.32-11.64c-0.14,0-0.29,0-0.43,0c-6.39-0.16-11.71,4.89-11.87,11.29
	c0,0.12,0,0.24,0,0.35c-0.21,6.35,4.77,11.66,11.11,11.87C112.85,35.04,113.1,35.04,113.35,35.03L113.35,35.03z M123.71,40.73h-20.6
	v64.26h20.6V40.73z M168.06,106.73c10.36,0,18.86-3.26,25.26-9.78c6.45-6.34,9.98-15.06,9.78-24.09c0.2-9.04-3.33-17.75-9.78-24.09
	c-6.4-6.63-14.9-9.89-25.26-9.89s-18.74,3.26-25.26,9.89c-6.37,6.38-9.86,15.08-9.66,24.1c-0.19,9.01,3.29,17.71,9.66,24.1
	C149.32,103.47,157.7,106.73,168.06,106.73L168.06,106.73z M168.06,87.52c-3.85,0.08-7.56-1.43-10.24-4.19
	c-2.77-2.82-4.28-6.64-4.19-10.59c-0.08-3.85,1.43-7.56,4.19-10.24c2.64-2.83,6.37-4.4,10.24-4.31c3.85-0.08,7.56,1.43,10.24,4.19
	c2.84,2.69,4.4,6.45,4.31,10.36c0.09,3.95-1.42,7.77-4.19,10.59C175.69,86.1,171.94,87.61,168.06,87.52L168.06,87.52z M251.87,39.1
	c-7.33,0-13.5,2.56-38.76,1.63v90.68h20.6V99.63c4.95,4.62,11.5,7.13,18.27,6.98c8.53,0.19,16.7-3.39,22.35-9.78
	c5.94-6.6,9.15-15.22,8.96-24.09c0-9.43-2.91-17.46-8.85-23.86C268.51,42.37,261.06,39.1,251.87,39.1L251.87,39.1z M262.35,72.97
	c0.05,3.89-1.41,7.64-4.07,10.48c-2.66,2.88-6.44,4.45-10.36,4.31c-3.95,0.12-7.76-1.45-10.48-4.31c-2.67-2.83-4.13-6.59-4.07-10.48
	c0-8.38,6.17-14.78,14.55-14.78S262.34,64.6,262.35,72.97L262.35,72.97z M304.02,35.03c6.37,0.12,11.64-4.94,11.76-11.31
	c0-0.19,0-0.37,0-0.56c0.09-6.34-4.98-11.55-11.32-11.64c-0.14,0-0.29,0-0.43,0c-6.39-0.16-11.71,4.89-11.87,11.29
	c0,0.12,0,0.24,0,0.35c-0.21,6.35,4.77,11.66,11.11,11.87C303.51,35.04,303.76,35.04,304.02,35.03L304.02,35.03z M314.38,40.73
	h-20.6v64.26h20.6V40.73z M358.73,106.73c10.36,0,18.86-3.26,25.26-9.78c6.45-6.34,9.98-15.06,9.78-24.1
	c0.2-9.03-3.34-17.75-9.78-24.09c-6.4-6.63-14.9-9.89-25.26-9.89s-18.74,3.26-25.26,9.89c-6.37,6.38-9.86,15.08-9.66,24.1
	c-0.19,9.01,3.29,17.71,9.66,24.1C339.98,103.47,348.36,106.73,358.73,106.73L358.73,106.73z M358.73,87.52
	c-3.85,0.08-7.56-1.43-10.24-4.19c-2.77-2.82-4.28-6.64-4.19-10.59c-0.08-3.85,1.43-7.56,4.19-10.24c2.64-2.83,6.37-4.4,10.24-4.31
	c3.85-0.08,7.56,1.43,10.24,4.19c2.84,2.69,4.4,6.45,4.31,10.36c0.09,3.95-1.42,7.77-4.19,10.59
	C366.36,86.09,362.61,87.61,358.73,87.52L358.73,87.52z"/>
<path id="Path_34438_00000047023240609379908860000000861183372652726667_" class="st2" d="M51.54,106.27
	c15.02,0,28.17-5.47,39.46-16.41V52.61L51.78,71.23h19.55v7.45c-4.19,3.84-11.76,6.87-19.32,6.87c-7.1,0-12.92-2.33-17.23-6.98
	c-4.27-4.52-6.61-10.54-6.52-16.76c-0.15-6.26,2.24-12.3,6.63-16.76c4.42-4.54,10.13-6.75,17.11-6.75c7.51,0,14.74,2.82,20.25,7.92
	l13.85-16.18c-7.92-7.45-20.37-12.57-33.87-12.57c-13.15,0-24.21,4.19-33.06,12.57C10.45,38.4,6.03,49.11,6.03,62.03
	c0,12.8,4.19,23.4,12.69,31.78C27.22,102.08,38.16,106.27,51.54,106.27z"/>
</svg>
